<?xml version="1.0" encoding="UTF-8"?>
<svg width="512px" height="512px" viewBox="0 0 512 512" version="1.1" xmlns="http://www.w3.org/2000/svg" xmlns:xlink="http://www.w3.org/1999/xlink">
    <!-- Generator: Sketch 47 (45396) - http://www.bohemiancoding.com/sketch -->
    <title>textmaster</title>
    <desc>Created with Sketch.</desc>
    <defs></defs>
    <g id="Icons" stroke="none" stroke-width="1" fill="none" fill-rule="evenodd">
        <g id="textmaster" fill="#67768A">
            <path d="M424.895161,114 L475,114 L475,131.624625 L429.290323,131.624625 L429.290323,378.373376 L475,378.373376 L475,396 L424.895161,396 L424.895161,388.95015 L416.104839,388.95015 L416.104839,396 L366,396 L366,378.373376 L411.711671,378.373376 L411.711671,131.624625 L366,131.624625 L366,114 L416.104839,114 L416.104839,121.04985 L424.895161,121.04985 L424.895161,114 Z M36,161 L178,161 L178,191.029085 L125.081491,191.029085 L125.081491,350 L89.8024844,350 L89.8024844,191.029085 L36,191.029085 L36,161 Z M349.545783,161 L384,161 L384,349 L352.195953,349 L352.195953,218.372283 L300.959327,349 L271.80545,349 L219.685434,218.372283 L219.685434,349 L187,349 L187,161 L223.218994,161 L286.825085,303.101774 L349.545783,161 Z" id="Combined-Shape"></path>
        </g>
    </g>
</svg>